<svg id="visual" viewBox="0 0 900 600" width="900" height="600" xmlns="http://www.w3.org/2000/svg" xmlns:xlink="http://www.w3.org/1999/xlink" version="1.1"><rect x="0" y="0" width="900" height="600" fill="#001220"></rect><defs><linearGradient id="grad1_0" x1="33.3%" y1="0%" x2="100%" y2="100%"><stop offset="20%" stop-color="#001220" stop-opacity="1"></stop><stop offset="80%" stop-color="#001220" stop-opacity="1"></stop></linearGradient></defs><defs><linearGradient id="grad2_0" x1="0%" y1="0%" x2="66.7%" y2="100%"><stop offset="20%" stop-color="#001220" stop-opacity="1"></stop><stop offset="80%" stop-color="#001220" stop-opacity="1"></stop></linearGradient></defs><g transform="translate(900, 0)"><path d="M0 486.7C-65.4 482.1 -130.8 477.5 -186.3 449.7C-241.7 421.9 -287.2 371 -320.3 320.3C-353.5 269.6 -374.4 219.1 -400 165.7C-425.7 112.3 -456.2 56.2 -486.7 0L0 0Z" fill="#FBAE3C"></path></g><g transform="translate(0, 600)"><path d="M0 -486.7C54.6 -462.6 109.3 -438.5 174.1 -420.4C239 -402.2 314 -390.1 344.2 -344.2C374.4 -298.3 359.7 -218.7 376 -155.8C392.3 -92.8 439.5 -46.4 486.7 0L0 0Z" fill="#FBAE3C"></path></g></svg>